<svg width="392" height="96" viewBox="0 0 392 96" fill="none" xmlns="http://www.w3.org/2000/svg">
  <rect width="96" height="96" rx="24" fill="url(#paint0_linear_1_2)"/>
  <path d="M28.5 26.25C28.5 22.7132 31.3682 19.845 34.905 19.845H55.3119C63.4852 19.845 70.1125 26.4723 70.1125 34.6456C70.1125 40.3441 66.8894 45.2905 62.1686 47.776L73.8372 68.7343H61.4176L51.6453 50.7412H39.705V68.66H28.5V26.25Z" fill="white"/>
  <path d="M39.705 29.445V41.045H54.505C57.8187 41.045 60.505 38.3587 60.505 35.045C60.505 31.7313 57.8187 29.045 54.505 29.045L39.705 29.445Z" fill="#5CAFFF"/>
  <path d="M124.328 56V29.28H135.608C144.2 29.28 149.816 34.512 149.816 42.64C149.816 50.768 144.2 56 135.608 56H124.328ZM130.52 50.704H135.288C140.28 50.704 143.496 47.648 143.496 42.64C143.496 37.632 140.28 34.576 135.288 34.576H130.52V50.704ZM161.402 56.448C154.89 56.448 150.33 52.016 150.33 45.568C150.33 39.12 154.89 34.688 161.402 34.688C167.85 34.688 172.41 39.12 172.41 45.568C172.41 52.016 167.85 56.448 161.402 56.448ZM161.402 51.376C164.474 51.376 166.538 49.184 166.538 45.568C166.538 41.952 164.474 39.76 161.402 39.76C158.266 39.76 156.202 41.952 156.202 45.568C156.202 49.184 158.266 51.376 161.402 51.376ZM182.145 56L173.681 35.008H179.777L186.705 52.976H183.745L190.929 35.008H196.385L203.345 52.976H200.417L207.537 35.008H213.217L204.753 56H198.893L192.669 40.688H194.541L188.061 56H182.145ZM225.037 34.688C230.013 34.688 233.981 37.584 233.981 44.064V56H228.109V44.96C228.109 41.6 226.557 40.048 223.885 40.048C220.973 40.048 218.861 41.824 218.861 45.664V56H212.989V35.008H218.605V40.816L217.549 39.056C219.229 36.256 222.237 34.688 225.037 34.688ZM247.677 56.288C241.421 56.288 236.957 51.984 236.957 45.568C236.957 39.152 241.341 34.688 247.261 34.688C252.973 34.688 257.165 38.768 257.165 45.712C257.165 45.936 257.133 46.464 257.101 46.72H241.725V43.28H254.013L251.757 44.304C251.757 40.944 249.629 38.768 247.229 38.768C244.797 38.768 242.669 40.944 242.669 44.352V45.248C242.669 48.768 245.029 50.848 248.373 50.848C250.693 50.848 252.365 50.144 253.981 48.688L257.101 52.064C254.909 54.576 251.485 56.288 247.677 56.288ZM261.485 56V35.008H267.101V40.944L266.301 39.216C267.565 36.24 270.237 34.688 273.837 34.688V40.112C273.325 40.016 272.909 39.984 272.461 39.984C269.309 39.984 267.357 41.744 267.357 45.568V56H261.485ZM285.079 56.288C281.511 56.288 278.007 55.328 276.023 54.096L277.975 49.888C279.847 51.04 282.711 51.84 285.335 51.84C288.183 51.84 289.271 51.104 289.271 49.952C289.271 46.4 276.647 49.856 276.647 41.28C276.647 37.216 280.311 34.688 286.567 34.688C289.463 34.688 292.663 35.344 294.663 36.448L292.711 40.624C290.663 39.472 288.631 39.088 286.567 39.088C283.799 39.088 282.567 39.952 282.567 41.056C282.567 44.768 295.191 41.344 295.191 49.824C295.191 53.808 291.463 56.288 285.079 56.288ZM308.187 56.448C304.843 56.448 301.579 55.552 299.787 53.712L302.059 49.344C303.771 50.912 306.331 51.68 308.731 51.68C311.531 51.68 312.923 50.752 312.923 49.216C312.923 44.672 300.395 47.808 300.395 37.312C300.395 32.512 304.267 28.832 311.979 28.832C315.387 28.832 318.875 29.632 321.243 31.216L319.163 35.632C316.731 34.24 314.235 33.68 311.947 33.68C309.179 33.68 307.947 34.72 307.947 36.064C307.947 40.544 320.443 37.44 320.443 47.84C320.443 52.56 316.523 56.448 308.187 56.448ZM330.773 56V34.32H322.213V29.28H345.525V34.32H336.965V56H330.773ZM356.497 56.288C350.241 56.288 345.777 51.984 345.777 45.568C345.777 39.152 350.161 34.688 356.081 34.688C361.793 34.688 365.985 38.768 365.985 45.712C365.985 45.936 365.953 46.464 365.921 46.72H350.545V43.28H362.833L360.577 44.304C360.577 40.944 358.449 38.768 356.049 38.768C353.617 38.768 351.489 40.944 351.489 44.352V45.248C351.489 48.768 353.849 50.848 357.193 50.848C359.513 50.848 361.185 50.144 362.801 48.688L365.921 52.064C363.729 54.576 360.305 56.288 356.497 56.288Z" fill="#0C1F45"/>
  <defs>
    <linearGradient id="paint0_linear_1_2" x1="11.25" y1="7.5" x2="78.75" y2="88.5" gradientUnits="userSpaceOnUse">
      <stop stop-color="#0A5BFF"/>
      <stop offset="1" stop-color="#0C1F45"/>
    </linearGradient>
  </defs>
</svg>
